<svg width="804" height="579" viewBox="0 0 804 579" fill="none" xmlns="http://www.w3.org/2000/svg">
<g clip-path="url(#clip0_276_6)">
<path d="M73.272 339.779C73.272 339.779 76.1534 344.482 73.5973 348.892C71.0413 353.302 67.8191 357.725 69.74 359.937C71.6609 362.149 77.4856 364.906 76.804 369.596C76.1224 374.286 68.4543 383.679 73.272 388.928C78.0898 394.178 86.1142 393.898 86.4395 399.694C86.7648 405.489 78.6939 410.179 80.9711 415.429C83.2483 420.678 96.4623 421.784 96.4623 425.368C96.4623 428.952 91.3192 432.829 95.5019 436.693C99.6845 440.557 119.854 450.642 122.673 446.499C125.493 442.355 131.379 430.897 127.553 414.629C126.902 411.898 122.379 411.285 121.744 407.421C121.109 403.558 123.03 396.656 119.823 392.766C116.616 388.875 106.33 387.516 105.695 384.478C105.06 381.441 109.537 373.993 105.044 369.303C100.552 364.613 89.956 362.428 89.956 359.364C89.956 356.3 93.1782 352.462 88.6857 348.319C84.1933 344.175 73.272 339.779 73.272 339.779Z" fill="white"/>
<path d="M88.6394 372.314C95.3316 389.635 107.043 413.177 111.799 424.542C117.577 438.345 122.643 448.337 125.168 462.14C127.693 475.943 129.149 568.394 129.149 568.394" stroke="#1B1818" stroke-linecap="round" stroke-linejoin="round"/>
<path d="M74.9296 341.444C74.9296 341.444 80.3825 345.308 85.2002 362.148C85.51 363.228 85.8663 364.374 86.2536 365.586" stroke="#1B1818" stroke-linecap="round" stroke-linejoin="round"/>
<path d="M173.608 371.235C172.955 372.364 172.595 373.601 172.552 374.862C172.509 376.123 172.785 377.376 173.361 378.536C175.405 382.067 178.008 385.597 176.459 387.369C174.91 389.141 170.262 391.366 170.804 395.097C171.347 398.828 177.481 406.369 173.624 410.565C169.767 414.762 163.353 414.562 163.09 419.186C162.827 423.809 169.286 427.579 167.458 431.776C165.63 435.973 155.065 436.866 155.065 439.77C155.065 442.675 159.186 445.739 155.84 448.83C152.494 451.921 136.383 459.955 134.075 456.624C131.767 453.293 127.119 444.14 130.171 431.123C130.682 428.938 134.307 428.459 134.818 425.354C135.33 422.25 133.796 416.734 136.368 413.643C138.939 410.552 147.211 409.446 147.661 406.981C148.11 404.517 144.562 398.588 148.172 394.831C151.781 391.073 160.255 389.301 160.255 386.837C160.255 384.372 157.683 381.307 161.277 377.99C164.871 374.672 173.608 371.235 173.608 371.235Z" fill="white"/>
<path d="M161.308 397.269C155.964 411.165 146.592 429.978 142.719 439.064C138.072 450.122 134.075 458.116 132.03 469.162C129.985 480.207 128.854 554.191 128.854 554.191" stroke="#1B1818" stroke-linecap="round" stroke-linejoin="round"/>
<path d="M172.323 372.567C172.323 372.567 167.954 375.658 164.112 389.142C163.865 390.008 163.57 390.927 163.26 391.886" stroke="#1B1818" stroke-linecap="round" stroke-linejoin="round"/>
<path d="M85.2778 433.802C85.8215 434.743 86.1224 435.775 86.1598 436.826C86.1972 437.876 85.9703 438.922 85.4946 439.89C83.7751 442.848 81.6219 445.793 82.9076 447.271C84.1934 448.75 88.0662 450.602 87.6324 453.733C87.1987 456.864 82.0556 463.153 85.2778 466.657C88.4999 470.161 93.8599 469.974 94.0768 473.852C94.2936 477.729 88.8717 480.873 90.4208 484.377C91.97 487.881 100.722 488.627 100.722 491.039C100.722 493.45 97.2989 496.022 100.087 498.606C102.876 501.191 116.369 507.933 118.305 505.161C120.241 502.39 124.13 494.729 121.558 483.844C121.14 482.019 118.119 481.606 117.685 479.021C117.252 476.436 118.537 471.826 116.4 469.242C114.262 466.657 107.384 465.738 106.95 463.699C106.516 461.661 109.521 456.691 106.516 453.547C103.511 450.402 96.4314 448.937 96.4314 446.885C96.4314 444.833 98.5847 442.262 95.5794 439.491C92.5741 436.719 85.2778 433.802 85.2778 433.802Z" fill="white"/>
<path d="M95.5483 455.559C100.025 467.163 107.848 482.871 111.04 490.466C114.912 499.699 118.274 506.454 119.978 515.607C121.682 524.76 122.642 559.094 122.642 559.094" stroke="#1B1818" stroke-linecap="round" stroke-linejoin="round"/>
<path d="M86.3467 434.907C86.3467 434.907 90.0026 437.492 93.2093 448.75C93.4261 449.483 93.6585 450.243 93.9219 451.042" stroke="#1B1818" stroke-linecap="round" stroke-linejoin="round"/>
<path d="M195.761 429.205C194.978 430.014 194.409 430.959 194.094 431.976C193.778 432.993 193.723 434.057 193.933 435.094C194.816 438.305 196.133 441.596 194.475 442.781C192.817 443.967 188.588 445.006 188.17 448.111C187.752 451.215 191.098 458.37 187.024 461.154C182.95 463.939 177.729 462.686 176.536 466.484C175.343 470.281 179.634 474.318 177.295 477.435C174.956 480.553 166.142 479.54 165.491 481.885C164.84 484.23 167.52 487.401 164.112 489.373C160.704 491.345 145.833 495.262 144.64 492.158C143.447 489.053 141.758 480.86 147.134 470.774C148.048 469.082 151.1 469.282 152.2 466.843C153.299 464.405 153.284 459.675 156.057 457.584C158.83 455.492 165.77 455.931 166.73 454.04C167.691 452.148 166.08 446.712 169.829 444.247C173.577 441.782 180.874 441.742 181.416 439.757C181.958 437.772 180.548 434.854 184.22 432.749C187.891 430.644 195.761 429.205 195.761 429.205Z" fill="white"/>
<path d="M180.037 448.351C172.602 458.769 160.797 472.532 155.685 479.301C149.489 487.521 142.006 492.784 140.287 502.017C138.567 511.25 137.638 545.505 137.638 545.505" stroke="#1B1818" stroke-linecap="round" stroke-linejoin="round"/>
<path d="M194.491 430.071C194.491 430.071 190.246 431.87 184.127 442.195C183.724 442.861 183.291 443.528 182.81 444.287" stroke="#1B1818" stroke-linecap="round" stroke-linejoin="round"/>
<path d="M119.591 578.8H143.463C156.026 573.231 164.949 559.134 164.949 542.6C165.153 532.687 161.633 522.982 154.911 514.927H108.143C101.443 522.989 97.9444 532.693 98.1665 542.6C98.1665 559.134 107.027 573.231 119.591 578.8Z" fill="white" stroke="#1B1818" stroke-linecap="round" stroke-linejoin="round"/>
<path d="M143.896 578.8H119.591V581.864H143.896V578.8Z" fill="white" stroke="#1B1818" stroke-linecap="round" stroke-linejoin="round"/>
<path d="M475.191 62.2528H94.6653V309.961H475.191V62.2528Z" stroke="#1B1818" stroke-linecap="round" stroke-linejoin="round"/>
<path d="M466.299 68.8212H103.542V303.406H466.299V68.8212Z" stroke="#1B1818" stroke-linecap="round" stroke-linejoin="round"/>
<path d="M214.118 103.249C214.118 103.249 154.849 99.5582 149.86 107.552C144.872 115.546 148.42 261.704 151.286 263.542C154.151 265.381 234.117 266.607 241.971 264.155C249.825 261.704 239.136 113.068 239.136 108.765C239.136 104.461 220.547 102.623 220.547 102.623" stroke="#1B1818" stroke-width="2" stroke-linecap="round" stroke-linejoin="round"/>
<path d="M155.979 224.225C156.103 243.49 156.584 257.613 157.714 258C161.277 259.225 236.967 264.754 239.105 258.612C241.243 252.47 233.389 113.681 233.389 113.681" stroke="#1B1818" stroke-width="2" stroke-linecap="round" stroke-linejoin="round"/>
<path d="M230.538 113.068C230.538 113.068 158.427 110.617 157.73 113.681C157.265 115.639 155.948 173.183 155.964 215.018" stroke="#1B1818" stroke-width="2" stroke-linecap="round" stroke-linejoin="round"/>
<path d="M159.852 124.126H229.826" stroke="#1B1818" stroke-width="2" stroke-linecap="round" stroke-linejoin="round"/>
<path d="M223.397 121.342C219.121 125.232 223.397 121.342 226.263 115.786C229.129 110.23 223.397 116.892 216.968 121.342C210.539 125.792 214.118 122.461 216.255 116.346C218.393 110.23 214.118 116.346 208.401 120.236C202.685 124.126 205.551 122.461 207.689 115.786C209.827 109.111 207.689 115.786 199.122 120.236C190.556 124.686 194.831 124.673 199.122 118.011C203.413 111.349 196.272 118.011 188.418 120.236C180.564 122.461 188.418 120.236 191.268 114.121C194.119 108.005 186.265 115.786 180.564 119.117C174.863 122.448 180.564 119.117 181.989 115.226C183.414 111.336 178.411 116.346 172.694 121.342C166.978 126.338 172.694 121.342 173.407 116.892C174.119 112.442 166.978 124.126 166.978 124.126C166.978 124.126 169.116 113.001 167.691 115.786C166.74 117.571 165.538 119.249 164.112 120.782" stroke="white" stroke-width="2" stroke-linecap="round" stroke-linejoin="round"/>
<path d="M198.41 134.558H163.415V165.882H198.41V134.558Z" stroke="white" stroke-width="2" stroke-linecap="round" stroke-linejoin="round"/>
<path d="M170.557 134.558L164.856 140.088L176.985 136.41L164.856 146.23L184.839 135.171L164.856 153.598L191.981 136.41L163.415 159.127L197.697 138.862L163.415 165.882L197.697 146.23L173.422 164.656L198.41 152.985L182.702 164.043L197.697 159.74L194.831 164.043" stroke="white" stroke-width="2" stroke-linecap="round" stroke-linejoin="round"/>
<path d="M228.571 230.367H201.818V254.322H228.571V230.367Z" stroke="white" stroke-width="2" stroke-linecap="round" stroke-linejoin="round"/>
<path d="M207.271 230.367L202.902 234.591L212.181 231.779L202.902 239.294L218.192 230.833L202.902 244.93L223.645 231.779L201.818 249.153L228.013 233.658L201.818 254.322L228.013 239.294L209.455 253.377L228.571 244.45L216.55 252.91L228.013 249.619L225.829 252.91" stroke="white" stroke-width="2" stroke-linecap="round" stroke-linejoin="round"/>
<path d="M162.703 177.553H231.251" stroke="#1B1818" stroke-width="2" stroke-linecap="round" stroke-linejoin="round"/>
<path d="M161.99 183.082L229.826 183.695" stroke="#1B1818" stroke-width="2" stroke-linecap="round" stroke-linejoin="round"/>
<path d="M205.551 136.41H227.688" stroke="#1B1818" stroke-width="2" stroke-linecap="round" stroke-linejoin="round"/>
<path d="M205.551 143.778H227.688" stroke="#1B1818" stroke-width="2" stroke-linecap="round" stroke-linejoin="round"/>
<path d="M205.551 151.146H227.688" stroke="#1B1818" stroke-width="2" stroke-linecap="round" stroke-linejoin="round"/>
<path d="M205.551 158.514H227.688" stroke="#1B1818" stroke-width="2" stroke-linecap="round" stroke-linejoin="round"/>
<path d="M229.826 186.76H163.415V214.392H229.826V186.76Z" stroke="white" stroke-width="2" stroke-linecap="round" stroke-linejoin="round"/>
<path d="M162.703 192.289L171.982 187.372L161.277 201.495L179.123 187.372L163.415 207.651L191.268 186.76L166.994 211.328L196.985 187.372L174.135 211.328L206.976 186.76L180.564 213.779L213.405 187.372L188.418 212.554L221.972 186.76L196.272 213.779L229.826 186.76L205.551 213.166L228.401 195.979L213.405 211.941L228.401 203.347L225.457 207.451L222.685 211.328" stroke="white" stroke-width="2" stroke-linecap="round" stroke-linejoin="round"/>
<path d="M166.281 221.773H227.688" stroke="#1B1818" stroke-width="2" stroke-linecap="round" stroke-linejoin="round"/>
<path d="M164.856 228.528H184.839" stroke="#1B1818" stroke-width="2" stroke-linecap="round" stroke-linejoin="round"/>
<path d="M241.971 116.758L290.985 111.576" stroke="#1B1818" stroke-width="2" stroke-linecap="round" stroke-linejoin="round"/>
<path d="M234.117 146.843H285.517" stroke="#1B1818" stroke-width="2" stroke-linecap="round" stroke-linejoin="round"/>
<path d="M152.711 202.734L130.574 209.489" stroke="#1B1818" stroke-width="2" stroke-linecap="round" stroke-linejoin="round"/>
<path d="M215.543 258.612C215.543 258.612 211.267 277.651 240.53 282.594" stroke="#1B1818" stroke-width="2" stroke-linecap="round" stroke-linejoin="round"/>
<path d="M236.255 277.651L243.396 283.181L233.389 285.632" stroke="#1B1818" stroke-width="2" stroke-linecap="round" stroke-linejoin="round"/>
<path d="M279.088 141.313L290.52 147.455L280.528 151.146" stroke="#1B1818" stroke-width="2" stroke-linecap="round" stroke-linejoin="round"/>
<path d="M281.706 109.737L293.835 110.963L285.269 117.718" stroke="#1B1818" stroke-width="2" stroke-linecap="round" stroke-linejoin="round"/>
<path d="M133.424 203.347L121.295 211.941L136.29 212.553" stroke="#1B1818" stroke-width="2" stroke-linecap="round" stroke-linejoin="round"/>
<path d="M321.224 141.313H294.083V165.882H321.224V141.313Z" fill="white"/>
<path d="M300.512 146.843L316.22 147.456" stroke="#1B1818" stroke-width="2" stroke-linecap="round" stroke-linejoin="round"/>
<path d="M300.512 151.759L316.22 152.372" stroke="#1B1818" stroke-width="2" stroke-linecap="round" stroke-linejoin="round"/>
<path d="M300.512 156.676L316.22 157.288" stroke="#1B1818" stroke-width="2" stroke-linecap="round" stroke-linejoin="round"/>
<path d="M278.063 174.415L251.11 177.151L254.457 201.55L281.411 198.814L278.063 174.415Z" fill="white"/>
<path d="M258.237 182.003L273.914 181.031" stroke="#1B1818" stroke-width="2" stroke-linecap="round" stroke-linejoin="round"/>
<path d="M258.903 186.88L274.58 185.907" stroke="#1B1818" stroke-width="2" stroke-linecap="round" stroke-linejoin="round"/>
<path d="M259.569 191.756L275.262 190.783" stroke="#1B1818" stroke-width="2" stroke-linecap="round" stroke-linejoin="round"/>
<path d="M137.416 216.177L110.463 218.913L113.81 243.312L140.764 240.576L137.416 216.177Z" fill="white"/>
<path d="M117.561 223.759L133.254 222.786" stroke="#1B1818" stroke-width="2" stroke-linecap="round" stroke-linejoin="round"/>
<path d="M118.227 228.649L133.92 227.676" stroke="#1B1818" stroke-width="2" stroke-linecap="round" stroke-linejoin="round"/>
<path d="M118.909 233.524L134.586 232.552" stroke="#1B1818" stroke-width="2" stroke-linecap="round" stroke-linejoin="round"/>
<path d="M277.656 267.294L250.668 264.825L247.647 289.256L274.636 291.724L277.656 267.294Z" fill="white"/>
<path d="M256.409 270.896L271.946 272.935" stroke="#1B1818" stroke-width="2" stroke-linecap="round" stroke-linejoin="round"/>
<path d="M255.805 275.786L271.342 277.825" stroke="#1B1818" stroke-width="2" stroke-linecap="round" stroke-linejoin="round"/>
<path d="M255.2 280.676L270.738 282.714" stroke="#1B1818" stroke-width="2" stroke-linecap="round" stroke-linejoin="round"/>
<path d="M475.175 309.961H94.6653V318.328H475.175V309.961Z" fill="#1B1818" stroke="#1B1818" stroke-linecap="round" stroke-linejoin="round"/>
<path d="M627.872 369.929V354.314H573.234V369.929C573.229 375.045 571.178 380.003 567.425 383.972L565.04 386.517H636.067L633.681 383.972C629.928 380.003 627.877 375.045 627.872 369.929Z" fill="#1B1818" stroke="#1B1818" stroke-linecap="round" stroke-linejoin="round"/>
<path d="M624.774 369.929V354.314H570.136V369.929C570.131 375.045 568.08 380.003 564.327 383.972L561.941 386.517H632.968L630.583 383.972C626.83 380.003 624.779 375.045 624.774 369.929Z" fill="white" stroke="#1B1818" stroke-linecap="round" stroke-linejoin="round"/>
<path d="M625.207 358.724H570.353V363.507H625.207V358.724Z" fill="#1B1818"/>
<path d="M694.112 220.547H500.782C493.527 220.547 487.646 225.606 487.646 231.846V347.932C487.646 354.172 493.527 359.23 500.782 359.23H694.112C701.367 359.23 707.249 354.172 707.249 347.932V231.846C707.249 225.606 701.367 220.547 694.112 220.547Z" fill="#1B1818" stroke="#1B1818" stroke-linecap="round" stroke-linejoin="round"/>
<path d="M700.014 220.547H506.684C499.429 220.547 493.548 225.606 493.548 231.846V347.932C493.548 354.172 499.429 359.23 506.684 359.23H700.014C707.269 359.23 713.151 354.172 713.151 347.932V231.846C713.151 225.606 707.269 220.547 700.014 220.547Z" fill="#1B1818" stroke="#1B1818" stroke-linecap="round" stroke-linejoin="round"/>
<path d="M487.646 337.673H707.264V347.932C707.264 350.929 705.88 353.803 703.417 355.921C700.953 358.04 697.612 359.231 694.128 359.231H500.798C497.314 359.231 493.972 358.04 491.509 355.921C489.045 353.803 487.661 350.929 487.661 347.932V337.673H487.646Z" fill="white" stroke="#1B1818" stroke-linecap="round" stroke-linejoin="round"/>
<path d="M696.204 229.181H498.691V327.161H696.204V229.181Z" fill="white"/>
<path d="M567.425 239.387H528.573C525.973 239.387 523.864 241.2 523.864 243.437V312.452C523.864 314.689 525.973 316.502 528.573 316.502H567.425C570.026 316.502 572.135 314.689 572.135 312.452V243.437C572.135 241.2 570.026 239.387 567.425 239.387Z" fill="#1B1818"/>
<path d="M568.092 245.849H527.923V310.014H568.092V245.849Z" fill="white"/>
<path d="M621.04 246.928H584.683V250.165H621.04V246.928Z" fill="#1B1818"/>
<path d="M602.25 253.949H585.318V269.045H602.25V253.949Z" fill="white"/>
<path d="M618.531 300.315H609.468V308.402H618.531V300.315Z" fill="white"/>
<path d="M620.219 279.823H585.736V294.919H620.219V279.823Z" fill="white"/>
<path d="M605.379 255.028H619.166" stroke="#1B1818" stroke-linecap="round" stroke-linejoin="round"/>
<path d="M605.379 258.799H619.166" stroke="#1B1818" stroke-linecap="round" stroke-linejoin="round"/>
<path d="M605.379 262.569H619.166" stroke="#1B1818" stroke-linecap="round" stroke-linejoin="round"/>
<path d="M605.379 266.34H619.166" stroke="#1B1818" stroke-linecap="round" stroke-linejoin="round"/>
<path d="M586.356 274.973H619.584" stroke="#1B1818" stroke-linecap="round" stroke-linejoin="round"/>
<path d="M586.356 298.702H619.584" stroke="#1B1818" stroke-linecap="round" stroke-linejoin="round"/>
<path d="M624.185 243.704H581.553V311.653H624.185V243.704Z" stroke="#1B1818" stroke-linecap="round" stroke-linejoin="round"/>
<path d="M676.22 243.704H636.098V269.045H676.22V243.704Z" fill="#BFBFBF"/>
<path d="M676.22 243.704H636.098V249.1H676.22V243.704Z" fill="#1B1818"/>
<path d="M649.699 253.017H639.211V261.743H649.699V253.017Z" stroke="#1B1818" stroke-linecap="round" stroke-linejoin="round"/>
<path d="M670.674 253.017H660.186V261.743H670.674V253.017Z" stroke="#1B1818" stroke-linecap="round" stroke-linejoin="round"/>
<path d="M672.362 246.768C672.362 247.031 672.271 247.289 672.101 247.508C671.931 247.727 671.689 247.898 671.406 247.999C671.123 248.1 670.811 248.126 670.511 248.075C670.21 248.023 669.934 247.896 669.718 247.71C669.501 247.524 669.354 247.286 669.294 247.028C669.234 246.769 669.265 246.501 669.382 246.258C669.499 246.015 669.698 245.806 669.953 245.66C670.207 245.514 670.507 245.436 670.813 245.436C671.224 245.436 671.618 245.576 671.909 245.826C672.199 246.076 672.362 246.415 672.362 246.768Z" fill="white"/>
<path d="M663.564 248.074C664.402 248.074 665.082 247.489 665.082 246.768C665.082 246.047 664.402 245.462 663.564 245.462C662.725 245.462 662.045 246.047 662.045 246.768C662.045 247.489 662.725 248.074 663.564 248.074Z" fill="white"/>
<path d="M673.013 282.781H642.294V302.193H673.013V282.781Z" fill="#BFBFBF"/>
<path d="M673.013 282.781H642.294V286.911H673.013V282.781Z" fill="#1B1818"/>
<path d="M670.07 285.126C670.073 285.327 670.006 285.524 669.879 285.692C669.751 285.86 669.569 285.992 669.354 286.071C669.139 286.149 668.902 286.171 668.672 286.134C668.443 286.096 668.232 286.001 668.065 285.86C667.899 285.719 667.786 285.538 667.739 285.342C667.692 285.145 667.715 284.941 667.803 284.755C667.892 284.569 668.043 284.41 668.237 284.298C668.431 284.186 668.659 284.127 668.892 284.127C669.202 284.127 669.499 284.231 669.719 284.418C669.94 284.605 670.066 284.86 670.07 285.126Z" fill="white"/>
<path d="M664.493 285.126C664.493 285.391 664.371 285.645 664.153 285.832C663.935 286.02 663.64 286.125 663.331 286.125C663.023 286.125 662.728 286.02 662.51 285.832C662.292 285.645 662.17 285.391 662.17 285.126C662.17 284.861 662.292 284.607 662.51 284.419C662.728 284.232 663.023 284.127 663.331 284.127C663.64 284.127 663.935 284.232 664.153 284.419C664.371 284.607 664.493 284.861 664.493 285.126Z" fill="white"/>
<path d="M518.101 234.324H505.197V321.366H518.101V234.324Z" fill="#BFBFBF"/>
<path d="M518.101 234.324H505.197V238.321H518.101V234.324Z" fill="#1B1818"/>
<path d="M514.492 240.986H508.296V247.208H514.492V240.986Z" stroke="#1B1818" stroke-linecap="round" stroke-linejoin="round"/>
<path d="M514.492 251.191H508.296V257.413H514.492V251.191Z" stroke="#1B1818" stroke-linecap="round" stroke-linejoin="round"/>
<path d="M514.492 261.41H508.296V267.632H514.492V261.41Z" stroke="#1B1818" stroke-linecap="round" stroke-linejoin="round"/>
<path d="M514.492 271.629H508.296V277.851H514.492V271.629Z" stroke="#1B1818" stroke-linecap="round" stroke-linejoin="round"/>
<path d="M514.492 281.835H508.296V288.057H514.492V281.835Z" stroke="#1B1818" stroke-linecap="round" stroke-linejoin="round"/>
<path d="M514.492 292.054H508.296V298.276H514.492V292.054Z" stroke="#1B1818" stroke-linecap="round" stroke-linejoin="round"/>
<path d="M514.492 302.273H508.296V308.495H514.492V302.273Z" stroke="#1B1818" stroke-linecap="round" stroke-linejoin="round"/>
<path d="M514.492 312.479H508.296V318.701H514.492V312.479Z" stroke="#1B1818" stroke-linecap="round" stroke-linejoin="round"/>
<path d="M690.58 233.431H526.374V236.988H690.58V233.431Z" fill="#BFBFBF"/>
<path d="M690.58 319.593H526.374V323.151H690.58V319.593Z" fill="#BFBFBF"/>
<path d="M632.984 386.517H561.941V389.301H632.984V386.517Z" fill="#1B1818" stroke="#1B1818" stroke-linecap="round" stroke-linejoin="round"/>
<path d="M679.427 384.239H514.492V389.301H679.427V384.239Z" fill="white" stroke="#1B1818" stroke-linecap="round" stroke-linejoin="round"/>
<path d="M366.69 581.864H359.983L356.621 405.103H370.052L366.69 581.864Z" fill="white" stroke="#1B1818" stroke-linecap="round" stroke-linejoin="round"/>
<path d="M366.69 581.864H363.732L364.134 405.103H370.052L366.69 581.864Z" fill="#1B1818" stroke="#1B1818" stroke-linecap="round" stroke-linejoin="round"/>
<path d="M462.318 581.864H455.61L452.248 405.103H465.679L462.318 581.864Z" fill="white" stroke="#1B1818" stroke-linecap="round" stroke-linejoin="round"/>
<path d="M462.317 581.864H459.359L459.761 405.103H465.679L462.317 581.864Z" fill="#1B1818" stroke="#1B1818" stroke-linecap="round" stroke-linejoin="round"/>
<path d="M428.082 581.864H421.359L418.013 405.103H431.428L428.082 581.864Z" fill="#1B1818" stroke="#1B1818" stroke-linecap="round" stroke-linejoin="round"/>
<path d="M428.082 581.864H425.123L425.51 405.103H431.428L428.082 581.864Z" fill="#1B1818" stroke="#1B1818" stroke-linecap="round" stroke-linejoin="round"/>
<path d="M492.696 581.864H485.973L482.626 405.103H496.042L492.696 581.864Z" fill="#1B1818" stroke="#1B1818" stroke-linecap="round" stroke-linejoin="round"/>
<path d="M492.696 581.864H489.721L490.124 405.103H496.042L492.696 581.864Z" fill="#1B1818" stroke="#1B1818" stroke-linecap="round" stroke-linejoin="round"/>
<path d="M497.73 407.807H392.421V518.391H497.73V407.807Z" fill="#1B1818" stroke="#1B1818" stroke-linecap="round" stroke-linejoin="round"/>
<path d="M468.653 407.807H363.344V518.391H468.653V407.807Z" fill="white" stroke="#1B1818" stroke-linecap="round" stroke-linejoin="round"/>
<path d="M681.347 581.864H674.64L671.278 405.103H684.709L681.347 581.864Z" fill="white" stroke="#1B1818" stroke-linecap="round" stroke-linejoin="round"/>
<path d="M681.347 581.864H678.388L678.791 405.103H684.709L681.347 581.864Z" fill="#1B1818" stroke="#1B1818" stroke-linecap="round" stroke-linejoin="round"/>
<path d="M742.739 581.864H736.016L732.669 405.103H746.085L742.739 581.864Z" fill="#1B1818" stroke="#1B1818" stroke-linecap="round" stroke-linejoin="round"/>
<path d="M742.739 581.864H739.78L740.167 405.103H746.085L742.739 581.864Z" fill="#1B1818" stroke="#1B1818" stroke-linecap="round" stroke-linejoin="round"/>
<path d="M750.329 398.441H347.776V410.606H750.329V398.441Z" fill="white" stroke="#1B1818" stroke-linecap="round" stroke-linejoin="round"/>
<path d="M750.329 398.441H347.776V404.517H750.329V398.441Z" fill="#1B1818" stroke="#1B1818" stroke-linecap="round" stroke-linejoin="round"/>
<path d="M750.33 398.441H690.906V410.606H750.33V398.441Z" fill="#1B1818" stroke="#1B1818" stroke-linecap="round" stroke-linejoin="round"/>
<path d="M763.342 388.675H336.854V400.839H763.342V388.675Z" fill="white" stroke="#1B1818" stroke-linecap="round" stroke-linejoin="round"/>
<path d="M763.342 388.675H703.918V400.839H763.342V388.675Z" fill="#1B1818" stroke="#1B1818" stroke-linecap="round" stroke-linejoin="round"/>
<path d="M462.209 418.426H370.036V457.064H462.209V418.426Z" fill="white" stroke="#1B1818" stroke-linecap="round" stroke-linejoin="round"/>
<path d="M426.192 433.748H406.054V439.744H426.192V433.748Z" fill="#1B1818" stroke="#1B1818" stroke-linecap="round" stroke-linejoin="round"/>
<path d="M462.209 467.056H370.036V505.694H462.209V467.056Z" fill="white" stroke="#1B1818" stroke-linecap="round" stroke-linejoin="round"/>
<path d="M426.192 482.378H406.054V488.374H426.192V482.378Z" fill="#1B1818" stroke="#1B1818" stroke-linecap="round" stroke-linejoin="round"/>
<path d="M604.093 478.568H631.636V430.924H604.093V478.568Z" fill="#1B1818"/>
<path d="M610.987 527.625H624.758V461.648H610.987V527.625Z" fill="#1B1818"/>
<path d="M623.473 522.549C623.473 522.549 635.045 533.847 664.788 537.777C680.496 539.856 696.854 542.44 711.044 548.902C720.169 553.059 738.34 562.159 738.34 572.551C738.354 574.077 737.932 575.583 737.112 576.937C736.292 578.29 735.097 579.45 733.634 580.314C732.171 581.178 730.484 581.72 728.721 581.892C726.958 582.064 725.172 581.862 723.521 581.302C721.87 580.743 720.404 579.843 719.251 578.683C718.098 577.522 717.295 576.136 716.91 574.646C716.526 573.156 716.572 571.607 717.046 570.136C717.519 568.665 718.406 567.317 719.626 566.209C712.196 556.596 700.677 549.874 687.544 547.49C664.927 543.253 648.413 544.985 616.595 526.785L623.473 522.549Z" fill="#1B1818"/>
<path d="M613.635 522.549C613.635 522.549 602.063 533.847 572.32 537.777C556.612 539.856 540.254 542.44 526.064 548.902C516.924 553.059 498.768 562.159 498.768 572.551C498.752 574.079 499.171 575.587 499.991 576.942C500.81 578.297 502.004 579.459 503.468 580.325C504.932 581.19 506.62 581.733 508.385 581.906C510.15 582.079 511.937 581.876 513.59 581.315C515.242 580.755 516.709 579.854 517.862 578.692C519.015 577.529 519.818 576.141 520.201 574.649C520.583 573.157 520.534 571.608 520.057 570.136C519.581 568.664 518.691 567.316 517.466 566.209C524.9 556.599 536.418 549.878 549.548 547.49C572.181 543.253 588.695 544.985 620.513 526.785L613.635 522.549Z" fill="#1B1818"/>
<path d="M613.171 581.864H623.566C624.13 581.864 624.588 581.47 624.588 580.985V565.263C624.588 564.777 624.13 564.384 623.566 564.384H613.171C612.606 564.384 612.149 564.777 612.149 565.263V580.985C612.149 581.47 612.606 581.864 613.171 581.864Z" fill="#1B1818"/>
<path d="M615.417 581.864H621.319V524.134H615.417V581.864Z" fill="#1B1818"/>
<path d="M684.57 293.36C681.131 309.131 679.06 325.101 678.373 341.137C677.924 353.501 677.692 364.093 677.475 373.433C676.824 402.465 676.452 418.559 671.139 422.889C670.457 423.289 666.058 425.621 656.856 426.287C654.284 426.473 646.105 426.567 634.982 426.62C599.709 426.527 562.639 426.274 562.05 426.274H559.897C559.804 426.274 559.726 426.42 559.649 426.487C538.457 426.38 533.004 426.274 532.617 426.274H530.463C526.017 429.591 528.666 433.855 532.539 433.881C535.436 433.881 585.922 434.268 620.452 434.268C626.555 434.268 632.302 434.268 637.399 434.268H660.729C678.807 434.268 693.787 434.161 697.908 433.868C710.688 432.962 716.42 429.245 717.024 428.818C725.544 422.316 725.869 408.047 726.659 373.593C726.861 364.267 727.108 353.688 727.542 341.377C728.239 325.273 730.362 309.239 733.894 293.413L684.57 293.36Z" fill="#1B1818"/>
<path d="M410.701 542.12L414.186 557.775C414.186 557.775 411.088 563.438 399.083 568.101C387.077 572.764 381.268 574.763 381.268 576.095C381.268 577.427 380.493 580.425 383.591 581.424C386.69 582.424 452.527 581.424 452.527 581.424C452.527 581.424 456.013 580.092 456.013 573.763C456.013 567.435 452.914 555.777 452.914 553.112C452.914 550.448 450.73 544.026 450.73 543.12C450.73 542.214 424.256 543.453 424.256 543.453C424.256 543.453 416.51 537.124 410.701 542.12Z" fill="white" stroke="#1B1818" stroke-linecap="round" stroke-linejoin="round"/>
<path d="M424.255 543.453C424.255 543.453 426.192 558.442 427.354 559.441C428.516 560.44 452.914 560.44 452.914 560.44" fill="white"/>
<path d="M424.255 543.453C424.255 543.453 426.192 558.442 427.354 559.441C428.516 560.44 452.914 560.44 452.914 560.44" stroke="#1B1818" stroke-linecap="round" stroke-linejoin="round"/>
<path d="M452.914 553.112L425.805 553.447" stroke="#1B1818" stroke-linecap="round" stroke-linejoin="round"/>
<path d="M381.268 578.76H455.238" stroke="#1B1818" stroke-linecap="round" stroke-linejoin="round"/>
<path d="M459.111 354.367C459.111 354.367 437.64 416.534 435.006 425.101C432.373 433.668 447.585 508.892 447.585 510.237C447.585 511.583 449.676 515.647 449.676 520.15C449.676 524.653 447.585 525.999 448.639 527.358C449.692 528.717 453.286 531.861 452.821 534.566C452.661 536.65 451.547 538.595 449.723 539.975C448.567 541.013 447.13 541.786 445.54 542.227H432.961C432.961 542.227 429.863 521.949 421.436 468.349C413.009 414.749 426.688 384.105 429.306 374.193C431.088 367.798 433.724 361.601 437.16 355.726L459.111 354.367Z" fill="#1B1818" stroke="#1B1818" stroke-linecap="round" stroke-linejoin="round"/>
<path d="M392.886 542.12L396.371 557.775C396.371 557.775 393.273 563.438 381.267 568.101C369.262 572.764 363.453 574.763 363.453 576.095C363.453 577.427 362.678 580.425 365.776 581.424C368.875 582.424 434.712 581.424 434.712 581.424C434.712 581.424 438.198 580.092 438.198 573.763C438.198 567.435 435.099 555.777 435.099 553.112C435.099 550.448 432.915 544.026 432.915 543.12C432.915 542.214 406.441 543.453 406.441 543.453C406.441 543.453 398.695 537.124 392.886 542.12Z" fill="white" stroke="#1B1818" stroke-linecap="round" stroke-linejoin="round"/>
<path d="M406.441 543.453C406.441 543.453 408.377 558.442 409.539 559.441C410.701 560.44 435.099 560.44 435.099 560.44" fill="white"/>
<path d="M406.441 543.453C406.441 543.453 408.377 558.442 409.539 559.441C410.701 560.44 435.099 560.44 435.099 560.44" stroke="#1B1818" stroke-linecap="round" stroke-linejoin="round"/>
<path d="M435.099 553.112L407.99 553.447" stroke="#1B1818" stroke-linecap="round" stroke-linejoin="round"/>
<path d="M363.453 578.76H437.423" stroke="#1B1818" stroke-linecap="round" stroke-linejoin="round"/>
<path d="M372.686 354.367C372.686 354.367 372.159 393.565 374.777 410.232C377.395 426.9 387.356 465.644 388.92 486.815C390.485 507.986 393.118 517.912 393.118 517.912C393.118 517.912 389.401 520.576 389.401 523.241C389.401 525.906 391.492 525.906 390.95 530.009C390.407 534.113 388.332 535.405 389.912 537.217C391.492 539.029 392.53 542.613 397.766 543.519C403.002 544.425 427.617 543.972 432.853 543.066C438.089 542.16 440.707 537.657 440.707 534.06C440.707 530.462 439.158 527.758 439.158 523.694C439.158 519.63 441.776 516.046 441.776 513.342C441.776 510.637 440.723 509.278 440.723 506.574C440.723 503.869 433.922 460.635 433.922 451.628C433.922 442.621 433.396 411.978 434.96 404.317C436.525 396.656 444.394 360.176 444.394 360.176L372.686 354.367Z" fill="white" stroke="#1B1818" stroke-linecap="round" stroke-linejoin="round"/>
<path d="M405.883 367.584C412.103 369.419 418.588 370.509 425.154 370.822C430.199 370.943 435.228 371.348 440.211 372.034L443.031 360.71L405.883 367.584Z" fill="#1B1818" stroke="#1B1818" stroke-linecap="round" stroke-linejoin="round"/>
<path d="M400.136 369.529C400.136 369.529 402.707 431.43 407.881 452.068C413.056 472.706 419.872 506.6 418.168 511.024C416.464 515.447 413.877 525.759 413.877 525.759C413.877 525.759 423.311 524.294 423.311 528.704C423.311 533.114 409.601 536.085 413.025 538.296C416.448 540.508 419.856 542.933 419.856 542.933" stroke="#1B1818" stroke-linecap="round" stroke-linejoin="round"/>
<path d="M430.576 527.731C430.576 527.731 402.134 531.728 410.205 533.06C418.276 534.393 433.659 532.727 434.433 531.075C435.208 529.423 432.884 527.398 430.576 527.731Z" fill="#1B1818" stroke="#1B1818" stroke-linecap="round" stroke-linejoin="round"/>
<path d="M305.036 99.7581L304.245 127.417L334.577 127.191L334.841 99.5316L305.036 99.7581Z" fill="white"/>
<path d="M339.55 150.8C339.55 150.8 333.013 145.177 330.131 140.008C327.25 134.838 323.083 131.694 323.083 128.097C323.083 124.499 324.911 116.106 324.121 112.802C323.331 109.497 324.121 102.463 326.739 102.463C327.347 102.463 327.947 102.581 328.494 102.809C329.041 103.037 329.521 103.368 329.898 103.778C330.276 104.188 330.54 104.667 330.671 105.177C330.803 105.688 330.798 106.217 330.658 106.726C330.131 108.978 332.207 116.852 332.207 116.852C332.207 116.852 334.298 101.783 334.562 100.864C334.825 99.9445 338.481 99.9578 340.061 100.637C341.641 101.317 343.454 101.077 343.454 104.008C343.454 106.939 342.664 110.297 342.664 110.976C342.664 111.656 349.991 115.253 350.254 117.944C350.518 120.636 349.728 127.164 347.9 129.935C346.649 131.612 345.611 133.398 344.801 135.265C344.538 136.157 351.865 145.604 351.865 145.604L339.55 150.8Z" fill="white" stroke="#1B1818" stroke-linecap="round" stroke-linejoin="round"/>
<path d="M351.741 141.3L333.927 153.011C333.927 153.011 364.305 207.064 365.358 208.81C366.412 210.555 388.394 222.333 388.394 222.333L421.39 187.186C421.39 187.186 380.013 175.928 378.975 174.582C377.937 173.236 351.741 141.3 351.741 141.3Z" fill="#1B1818" stroke="#1B1818" stroke-linecap="round" stroke-linejoin="round"/>
<path d="M372.747 339.938L371.198 360.922C371.198 360.922 391.337 368.25 413.025 367.917C434.712 367.584 463.758 360.256 463.758 360.256L468.018 339.605C468.018 339.605 415.736 343.269 399.857 341.937C383.979 340.604 372.747 339.938 372.747 339.938Z" fill="white" stroke="#1B1818" stroke-linecap="round" stroke-linejoin="round"/>
<path d="M357.256 333.276L356.094 339.272C356.094 339.272 372.5 346.973 408.764 349.931C431.083 351.7 453.588 349.663 474.989 343.935L475.377 333.61C456.091 337.564 436.336 339.576 416.51 339.605C396.566 339.161 376.721 337.041 357.256 333.276Z" fill="#1B1818" stroke="#1B1818" stroke-linecap="round" stroke-linejoin="round"/>
<path d="M386.689 209.369C386.689 209.369 373.909 228.688 369.649 243.677C365.389 258.666 356.869 327.947 355.707 331.944C354.545 335.941 381.655 343.935 399.47 344.268C417.284 344.602 457.174 345.268 464.145 342.936C471.116 340.605 477.7 337.274 477.7 333.61C477.7 329.946 478.087 316.289 478.087 305.298C478.087 294.306 474.215 236.349 470.729 223.026C467.244 209.702 464.92 200.376 463.758 198.711C462.596 197.045 454.076 189.051 436.648 190.05C423.046 190.912 409.828 194.323 397.921 200.043C393.503 202.489 389.687 205.658 386.689 209.369Z" fill="#1B1818" stroke="#1B1818" stroke-linecap="round" stroke-linejoin="round"/>
<path d="M269.886 230.9C269.886 230.9 263.596 233.151 263.07 238.561C262.543 243.97 274.084 249.366 280.885 257.48C287.685 265.594 296.593 274.094 296.593 274.094L310.225 290.309L326.46 278.597L284.556 236.789C284.556 236.789 286.647 232.792 284.029 231.379C281.826 230.498 279.442 230.001 277.014 229.919C274.586 229.837 272.163 230.17 269.886 230.9Z" fill="white" stroke="#1B1818" stroke-linecap="round" stroke-linejoin="round"/>
<path d="M270.939 243.517L318.141 229.994C318.141 229.994 321.239 241.266 335.414 252.977C343.912 260.019 353.022 266.495 362.663 272.349L320.232 293.067L270.939 243.517Z" fill="white" stroke="#1B1818" stroke-linecap="round" stroke-linejoin="round"/>
<path d="M270.939 243.517C273.019 241.51 274.3 238.985 274.595 236.309C274.735 235.073 274.338 233.836 273.48 232.837C272.621 231.838 271.363 231.148 269.948 230.9L316.561 219.188C316.561 219.188 325.468 221.853 318.11 229.994L270.939 243.517Z" fill="white" stroke="#1B1818" stroke-linecap="round" stroke-linejoin="round"/>
<path d="M333.4 286.352C333.4 286.352 322.928 285.019 322.401 282.355C321.874 279.69 319.783 273.801 317.754 271.549C315.724 269.298 305.702 264.794 302.557 261.637C299.412 258.479 297.321 253.976 295.23 254.429C293.138 254.882 289.994 256.681 291.031 258.426C292.069 260.171 296.794 267.899 296.794 267.899L297.848 271.043C297.848 271.043 288.413 269.711 286.849 269.244C286.393 269.133 285.911 269.12 285.448 269.206C284.984 269.291 284.552 269.474 284.189 269.737C283.827 270 283.545 270.336 283.368 270.715C283.192 271.093 283.126 271.504 283.177 271.909C283.177 274.161 281.086 274.161 283.704 275.506C286.322 276.852 289.467 278.664 289.467 278.664C289.467 278.664 293.138 285.872 294.114 287.218C295.09 288.563 303.548 291.734 305.113 292.627C306.678 293.52 315.074 295.785 319.256 296.624C323.439 297.463 332.873 300.688 332.873 300.688L335.491 290.322L333.4 286.352Z" fill="white" stroke="#1B1818" stroke-linecap="round" stroke-linejoin="round"/>
<path d="M444.441 224.185C444.441 224.185 443.387 262.476 443.387 264.275C443.387 266.074 444.936 303.019 440.289 306.164C435.642 309.308 412.529 313.372 379.006 312.479C345.483 311.586 330.813 305.271 330.813 305.271L333.431 286.352L397.332 282.355C397.332 282.355 390.531 240.466 391.569 226.05C392.607 211.634 406.239 203.974 406.239 203.974" fill="#1B1818"/>
<path d="M444.441 224.185C444.441 224.185 443.387 262.476 443.387 264.275C443.387 266.074 444.936 303.019 440.289 306.164C435.642 309.308 412.529 313.372 379.006 312.479C345.483 311.586 330.813 305.271 330.813 305.271L333.431 286.352L397.332 282.355C397.332 282.355 390.531 240.466 391.569 226.05C392.607 211.634 406.239 203.974 406.239 203.974" stroke="#1B1818" stroke-linecap="round" stroke-linejoin="round"/>
<path d="M373.909 314.158C373.909 314.158 437.33 316.063 440.676 309.361C444.022 302.66 444.007 236.629 444.007 236.629" stroke="#707070" stroke-linecap="round" stroke-linejoin="round"/>
<path d="M401.793 211.741C401.793 211.741 388.424 224.185 390.655 240.453C392.886 256.721 397.347 282.288 397.347 282.288L372.856 283.527" stroke="#707070" stroke-linecap="round" stroke-linejoin="round"/>
<path d="M374.73 107.712C374.73 107.712 365.947 120.782 367.635 122.514C369.324 124.246 367.976 127.457 367.976 127.457C367.976 127.457 359.193 133.266 359.874 135.291C360.556 137.316 367.62 142.846 367.62 142.846C367.62 142.846 368.967 158.527 370.718 159.979C372.468 161.432 383.885 163.164 386.209 163.457C387.492 163.593 388.744 163.889 389.927 164.336L396.666 195.686L434.48 166.375L428.407 152.438C428.407 152.438 425.03 133.786 425.309 125.152C425.588 116.519 408.083 105.98 397.626 103.369C387.17 100.757 374.73 107.712 374.73 107.712Z" fill="white" stroke="#1B1818" stroke-linecap="round" stroke-linejoin="round"/>
<path d="M381.81 89.992C381.81 89.992 373.042 82.1578 362.57 88.2599C352.098 94.362 355.15 104.248 364.599 107.712C374.049 111.176 385.187 108.578 381.485 112.069C377.782 115.56 376.837 123.101 382.491 124.553C388.146 126.005 387.216 131.521 387.216 133.879C387.216 136.237 391.864 135.918 392.964 133.879C394.063 131.841 396.666 126.338 403.079 128.656C409.493 130.975 409.167 143.752 406.797 146.949C404.427 150.147 402.072 149.854 402.072 149.854C402.072 149.854 405.79 151.013 403.42 154.784L401.065 158.567C401.065 158.567 406.456 164.083 419.965 162.045C433.473 160.006 436.509 154.784 434.48 150.44C432.451 146.097 427.726 145.497 432.791 139.115C437.857 132.733 450.358 125.166 449.336 110.657C448.67 101.077 422.335 92.0038 422.335 92.0038C422.335 92.0038 428.407 83.2903 414.589 77.7745C400.771 72.2586 384.893 78.6538 385.9 84.4361C386.906 90.2185 381.81 89.992 381.81 89.992Z" fill="#1B1818" stroke="#1B1818" stroke-linecap="round" stroke-linejoin="round"/>
<path d="M367.542 121.475C367.542 121.475 363.251 120.489 362.895 122.234C362.539 123.98 362.895 132.68 362.895 132.68C364.405 133.488 366.204 133.8 367.961 133.559C370.331 132.973 368.968 125.712 368.968 125.712" stroke="#1B1818" stroke-linecap="round" stroke-linejoin="round"/>
<path d="M394.311 131.228L363.22 126.804L363.251 125.125L394.311 131.228Z" fill="#1B1818" stroke="#1B1818" stroke-linecap="round" stroke-linejoin="round"/>
<path d="M438.879 157.368C438.879 157.368 421.653 168.107 409.833 179.139C398.013 190.17 383.839 202.375 383.204 206.145C382.569 209.916 383.87 215.725 390.624 209.622C397.378 203.52 409.864 195.406 419.329 194.82C428.794 194.234 443.294 198.311 450.714 199.177C458.135 200.043 462.875 201.842 465.57 198.311C468.266 194.78 461.186 186.986 461.186 182.909C461.186 178.832 462.193 171.877 458.816 166.921C455.439 161.965 444.611 155.916 438.879 157.368Z" fill="#757575" stroke="#1B1818" stroke-linecap="round" stroke-linejoin="round"/>
<path d="M460.939 171.744C459.98 174.566 458.671 177.29 457.035 179.871C455.067 182.39 427.385 187.159 427.385 187.159C427.385 187.159 450.188 186.04 454.417 186.04C458.646 186.04 463.541 189.398 463.541 189.398L461.264 184.068C461.264 184.068 462.209 174.276 460.939 171.744Z" fill="#1B1818" stroke="#1B1818" stroke-linecap="round" stroke-linejoin="round"/>
</g>
<defs>
<clipPath id="clip0_276_6">
<rect width="804" height="579" fill="white"/>
</clipPath>
</defs>
</svg>
